# xmcd
#
# Track frame offsets:
#	150
#	11605
#	28076
#	40634
#	54492
#	64719
#	82869
#	93935
#	108413
#	118959
#	131584
#
# Disc length: 1964 seconds
#
# Revision: 0
# Processed by: cddbd v1.5.2PL0 Copyright (c) Steve Scherf et al.
# Submitted via: EZCDAudioConverter 1.3.4.1
#
DISCID=8607aa0b
DTITLE=Potatoes - Round the world
DYEAR=1900
DGENRE=
TTITLE0=Around the world
TTITLE1=Count me
TTITLE2=Get out
TTITLE3=Tic toc
TTITLE4=Recuerdos de la Alhambra
TTITLE5=Melting pot
TTITLE6=Air
TTITLE7=Home today
TTITLE8=Men behaving badly
TTITLE9=Fuji-beat
TTITLE10=Strangers in the night
EXTD=
EXTT0=
EXTT1=
EXTT2=
EXTT3=
EXTT4=
EXTT5=
EXTT6=
EXTT7=
EXTT8=
EXTT9=
EXTT10=
PLAYORDER=
